<?xml version="1.0" standalone="no"?>
<!DOCTYPE svg PUBLIC "-//W3C//DTD SVG 20010904//EN"
 "http://www.w3.org/TR/2001/REC-SVG-20010904/DTD/svg10.dtd">
<svg version="1.0" xmlns="http://www.w3.org/2000/svg"
 width="248.000000pt" height="248.000000pt" viewBox="0 0 248.000000 248.000000"
 preserveAspectRatio="xMidYMid meet">
<metadata>
Created by potrace 1.14, written by Peter Selinger 2001-2017
</metadata>
<g transform="translate(0.000000,248.000000) scale(0.100000,-0.100000)"
fill="#000000" stroke="none">
<path d="M1660 2350 c-148 -19 -262 -155 -339 -405 -57 -189 -85 -378 -101
-693 -7 -134 -16 -219 -25 -242 -8 -19 -33 -84 -56 -145 -83 -224 -188 -442
-236 -493 -28 -29 -35 -33 -48 -22 -36 30 -6 293 70 605 67 275 71 301 55 320
-25 30 -98 55 -160 55 -71 0 -74 -5 -91 -111 -6 -41 -15 -82 -20 -91 -5 -10
-21 -67 -34 -128 -40 -182 -127 -373 -202 -443 -97 -91 -149 5 -124 231 31
282 143 552 220 527 29 -9 35 -39 21 -105 -18 -83 6 -116 65 -94 44 17 63 145
29 202 -9 17 -39 43 -66 57 -40 22 -61 26 -123 26 -113 0 -193 -41 -263 -135
-93 -123 -127 -240 -127 -441 0 -119 3 -150 23 -210 43 -131 112 -199 210
-210 43 -5 63 -1 105 18 60 28 121 87 154 149 12 24 22 39 23 33 0 -5 2 -50 4
-100 5 -118 25 -181 76 -232 32 -33 49 -42 89 -48 52 -7 113 13 156 52 53 48
170 262 225 413 15 41 32 76 36 77 5 2 8 -90 6 -204 -2 -115 0 -218 2 -229 3
-12 20 -27 37 -34 45 -19 163 -16 194 4 25 16 25 19 25 145 0 129 0 129 49
268 118 335 215 531 262 532 21 1 31 -36 24 -86 -2 -21 -7 -69 -10 -108 -6
-81 -14 -157 -21 -200 -3 -16 -7 -120 -9 -231 -4 -180 -2 -209 16 -275 37
-135 88 -191 183 -204 75 -11 139 40 209 166 66 118 169 404 222 619 9 36 23
84 31 108 19 57 6 84 -39 80 -31 -3 -32 -4 -60 -108 -73 -277 -224 -670 -270
-709 -25 -20 -45 -7 -53 35 -4 20 3 151 16 292 26 291 24 509 -4 600 -33 105
-120 165 -212 147 -84 -15 -200 -181 -287 -405 -13 -36 -27 -72 -30 -80 -4 -8
-4 75 -1 185 5 198 5 201 34 255 225 419 340 771 300 915 -22 80 -77 116 -160
105z m68 -117 c27 -53 -17 -236 -112 -476 -86 -215 -108 -265 -114 -249 -4 12
11 190 24 282 46 329 93 460 164 460 18 0 33 -7 38 -17z"/>
</g>
</svg>
