<svg width="28" height="28" viewBox="0 0 28 28" fill="none" xmlns="http://www.w3.org/2000/svg">
<path d="M13.7764 0C10.5051 0.000141338 7.3407 1.21308 4.84926 3.4218C2.35781 5.63051 0.701943 8.69086 0.177936 12.0553C-0.346072 15.4197 0.295978 18.8686 1.9892 21.7849C3.68242 24.7011 6.31633 26.8945 9.41963 27.9725C10.1084 28.0981 10.3668 27.6675 10.3668 27.2907C10.3668 26.9498 10.3495 25.8194 10.3495 24.6173C6.8882 25.2811 5.99274 23.7381 5.71722 22.9307C5.41148 22.1454 4.92683 21.4495 4.30514 20.9031C3.82297 20.634 3.13415 19.9701 4.28791 19.9522C4.72846 20.002 5.15099 20.1617 5.5197 20.4179C5.88842 20.674 6.19245 21.0189 6.40603 21.4235C6.59445 21.7761 6.84781 22.0866 7.15159 22.3371C7.45537 22.5876 7.80361 22.7731 8.17633 22.8831C8.54906 22.9932 8.93896 23.0255 9.32369 22.9782C9.70842 22.9309 10.0804 22.805 10.4184 22.6077C10.478 21.8779 10.7901 21.1957 11.2966 20.6879C8.2314 20.329 5.0284 19.0909 5.0284 13.6005C5.00904 12.174 5.51427 10.7937 6.44047 9.74288C6.0193 8.503 6.06858 7.14233 6.57824 5.93905C6.57824 5.93905 7.73196 5.56224 10.3667 7.41034C12.6209 6.76437 15.0007 6.76437 17.2549 7.41034C19.8896 5.54431 21.0434 5.93905 21.0434 5.93905C21.5531 7.14231 21.6024 8.50301 21.1811 9.74288C22.1101 10.7919 22.6158 12.1734 22.5932 13.6005C22.5932 19.1089 19.373 20.329 16.3078 20.6879C16.6365 21.0351 16.8898 21.4519 17.0502 21.9101C17.2107 22.3683 17.2746 22.8572 17.2377 23.3434C17.2377 25.2633 17.2204 26.8063 17.2204 27.2908C17.2204 27.6676 17.4787 28.1161 18.1676 27.9726C21.2654 26.8858 23.8917 24.6873 25.5777 21.7695C27.2638 18.8517 27.8997 15.4046 27.3721 12.0434C26.8444 8.68228 25.1875 5.6259 22.6972 3.41988C20.2068 1.21385 17.0451 0.0017726 13.7764 0Z" fill="black"/>
</svg>
