<svg width="28" height="28" viewBox="0 0 28 28" fill="none" xmlns="http://www.w3.org/2000/svg">
<path d="M25.5155 0.00019576H2.03736C1.77344 -0.00350666 1.51139 0.0453416 1.26616 0.143951C1.02094 0.24256 0.797346 0.388999 0.608155 0.574905C0.418964 0.76081 0.26788 0.98254 0.163532 1.22743C0.0591837 1.47232 0.00361513 1.73558 0 2.00217V25.9978C0.00361513 26.2644 0.0591837 26.5277 0.163532 26.7726C0.26788 27.0175 0.418964 27.2392 0.608155 27.4251C0.797346 27.611 1.02094 27.7574 1.26616 27.856C1.51139 27.9547 1.77344 28.0035 2.03736 27.9998H25.5155C25.7794 28.0035 26.0415 27.9547 26.2867 27.856C26.5319 27.7574 26.7555 27.611 26.9447 27.4251C27.1339 27.2392 27.285 27.0175 27.3893 26.7726C27.4937 26.5277 27.5492 26.2644 27.5529 25.9978V2.00217C27.5492 1.73558 27.4937 1.47232 27.3893 1.22743C27.285 0.98254 27.1339 0.76081 26.9447 0.574905C26.7555 0.388999 26.5319 0.24256 26.2867 0.143951C26.0415 0.0453416 25.7794 -0.00350666 25.5155 0.00019576ZM8.35733 23.4359H4.19945V10.836H8.35733V23.4359ZM6.27839 9.07207C5.70497 9.07207 5.15503 8.84197 4.74956 8.4324C4.34409 8.02283 4.1163 7.46732 4.1163 6.8881C4.1163 6.30887 4.34409 5.75337 4.74956 5.3438C5.15503 4.93423 5.70497 4.70413 6.27839 4.70413C6.58288 4.66925 6.89123 4.69973 7.18325 4.79357C7.47527 4.8874 7.74437 5.04249 7.97294 5.24867C8.20151 5.45485 8.38439 5.70747 8.50961 5.98999C8.63482 6.27251 8.69955 6.57856 8.69955 6.8881C8.69955 7.19764 8.63482 7.50369 8.50961 7.78621C8.38439 8.06873 8.20151 8.32135 7.97294 8.52753C7.74437 8.73371 7.47527 8.88879 7.18325 8.98263C6.89123 9.07647 6.58288 9.10695 6.27839 9.07207ZM23.3534 23.4359H19.1955V16.674C19.1955 14.98 18.5996 13.874 17.0889 13.874C16.6213 13.8775 16.1661 14.0256 15.7845 14.2984C15.4028 14.5713 15.1132 14.9557 14.9545 15.4C14.846 15.729 14.799 16.0756 14.8159 16.422V23.4219H10.658C10.658 23.4219 10.658 11.97 10.658 10.822H14.8159V12.6C15.1936 11.938 15.743 11.3926 16.4048 11.0225C17.0667 10.6525 17.8159 10.4718 18.5718 10.5C21.3438 10.5 23.3534 12.306 23.3534 16.184V23.4359Z" fill="black"/>
</svg>
