<svg width="30" height="24" viewBox="0 0 30 24" fill="none" xmlns="http://www.w3.org/2000/svg">
<path d="M27.6902 0.00206205C27.284 0.0176943 26.9054 0.120901 26.5722 0.23838C26.26 0.347889 25.0673 0.794016 23.1887 1.49661C21.3085 2.19982 18.8188 3.13201 16.163 4.12804C10.8514 6.12009 4.8798 8.36245 1.82112 9.51012C1.7061 9.55326 1.30478 9.66507 0.878823 9.95508C0.452869 10.2451 0 10.846 0 11.5156C0 12.0556 0.295057 12.592 0.666441 12.9122C1.03782 13.2325 1.4308 13.3907 1.76741 13.5105C2.98875 13.9451 6.77667 15.297 7.49197 15.5522C7.7437 16.2247 9.11475 19.8824 9.4327 20.7788C9.6423 21.3704 9.84181 21.7409 10.1016 22.0349C10.2315 22.182 10.3824 22.3108 10.5654 22.4118C10.6385 22.4521 10.7187 22.4832 10.7998 22.5118L10.8046 22.514C10.8233 22.5205 10.8394 22.5316 10.8583 22.5374C10.8941 22.5483 10.918 22.5496 10.9658 22.5587C11.1561 22.6123 11.3484 22.646 11.5199 22.646C12.2513 22.646 12.699 22.2947 12.699 22.2947L12.7258 22.2776L16.4877 19.4397L21.0503 23.2038C21.1145 23.283 21.7136 24 23.0349 24C23.8195 24 24.4418 23.6567 24.8414 23.291C25.241 22.9254 25.4899 22.5413 25.5957 22.0584V22.0562C25.6947 21.5999 29.8995 2.774 29.8995 2.774L29.8922 2.79955C30.0153 2.30956 30.0475 1.85324 29.9117 1.40294C29.7759 0.95263 29.418 0.521484 28.9743 0.289475C28.5306 0.0575185 28.0965 -0.0135703 27.6902 0.00206205ZM27.4559 2.28008C27.4499 2.31189 27.4604 2.29589 27.451 2.3333L27.4486 2.34608L27.4461 2.35885C27.4461 2.35885 23.2934 20.9439 23.1399 21.6517C23.1511 21.5983 23.0998 21.7046 23.0471 21.7688C22.9727 21.7241 22.8201 21.6666 22.8201 21.6666L22.7957 21.6432L16.5634 16.5017L12.157 19.8229L13.468 15.2456C13.468 15.2456 21.6624 7.84789 22.1561 7.41732C22.5536 7.07287 22.637 6.95279 22.637 6.83398C22.637 6.67483 22.5419 6.55934 22.3294 6.55934C22.1382 6.55934 21.881 6.72148 21.7435 6.79779C19.9523 7.79359 12.0886 11.7906 8.56364 13.5786C8.00346 13.3787 4.11169 11.9894 2.7927 11.5199C2.80269 11.5161 2.7994 11.5174 2.80979 11.5135C5.86928 10.3655 11.8384 8.12319 17.1493 6.13141C19.8047 5.13553 22.2962 4.20263 24.175 3.49999C26.0248 2.80817 27.3101 2.33204 27.4559 2.28008Z" fill="black"/>
</svg>
